<svg xmlns="http://www.w3.org/2000/svg" viewBox="0 0 320 320" role="img" aria-label="SIPA">
  <defs>
    <linearGradient id="markBlue" x1="0" y1="0" x2="1" y2="1">
      <stop offset="0" stop-color="#2a6b9e"/>
      <stop offset="1" stop-color="#173a56"/>
    </linearGradient>
  </defs>
  <g fill="none" stroke="currentColor" stroke-width="7" stroke-linecap="round" stroke-linejoin="round" opacity="0.9">
    <path d="M160 40 L280 160 L160 280 L40 160 Z"/>
    <path d="M100 100 L220 220"/>
    <path d="M220 100 L100 220"/>
    <path d="M160 70 L160 250"/>
    <path d="M70 160 L250 160"/>
  </g>
  <g fill="currentColor" opacity="0.75">
    <circle cx="160" cy="40" r="11"/>
    <circle cx="280" cy="160" r="11"/>
    <circle cx="160" cy="280" r="11"/>
    <circle cx="40" cy="160" r="11"/>
    <circle cx="100" cy="100" r="9"/>
    <circle cx="220" cy="100" r="9"/>
    <circle cx="100" cy="220" r="9"/>
    <circle cx="220" cy="220" r="9"/>
  </g>
  <g fill="none" stroke="url(#markBlue)" stroke-width="16" stroke-linecap="round" stroke-linejoin="round">
    <path d="M96 250 L150 196 L192 232 L246 110"/>
  </g>
  <path d="M212 104 L252 100 L248 140 Z" fill="#173a56"/>
  <text x="160" y="212" font-family="Georgia, serif" font-size="150" font-weight="700" fill="url(#markBlue)" text-anchor="middle" stroke="#ffffff" stroke-width="6" paint-order="stroke">S</text>
</svg>
